<svg width="25" height="25" viewBox="0 0 25 25" fill="none" xmlns="http://www.w3.org/2000/svg">
<path d="M5.05882 6.41187H3.70588C2.98823 6.41187 2.29998 6.69695 1.79253 7.2044C1.28508 7.71185 1 8.4001 1 9.11774V21.2942C1 22.0118 1.28508 22.7001 1.79253 23.2075C2.29998 23.715 2.98823 24.0001 3.70588 24.0001H15.8823C16.6 24.0001 17.2882 23.715 17.7957 23.2075C18.3031 22.7001 18.5882 22.0118 18.5882 21.2942V19.9413" stroke="#222222" stroke-width="2" stroke-linecap="round" stroke-linejoin="round"/>
<path d="M17.2353 3.70602L21.2941 7.76484M23.1679 5.85043C23.7008 5.31758 24.0001 4.59488 24.0001 3.84132C24.0001 3.08775 23.7008 2.36505 23.1679 1.8322C22.6351 1.29935 21.9124 1 21.1588 1C20.4052 1 19.6825 1.29935 19.1497 1.8322L7.76471 13.1766V17.2354H11.8235L23.1679 5.85043Z" stroke="#222222" stroke-width="2" stroke-linecap="round" stroke-linejoin="round"/>
</svg>
