<svg width="11" height="20" viewBox="0 0 11 20" fill="none" xmlns="http://www.w3.org/2000/svg">
<path d="M8.03805 3.33333H10.5764C10.8099 3.33333 10.9994 3.14667 10.9994 2.91667V0.416667C10.9994 0.186667 10.8099 0 10.5764 0H8.03805C5.47264 0 3.38444 2.05583 3.38444 4.58333V7.5H0.423055C0.189529 7.5 0 7.68667 0 7.91667V10.4167C0 10.6467 0.189529 10.8333 0.423055 10.8333H3.38444V19.5833C3.38444 19.8133 3.57397 20 3.8075 20H6.34583C6.57935 20 6.76888 19.8133 6.76888 19.5833V10.8333H9.73027C9.91218 10.8333 10.0738 10.7183 10.1322 10.5483L10.9783 8.04833C11.0214 7.92167 10.9994 7.78167 10.9199 7.6725C10.8395 7.56417 10.7126 7.5 10.5764 7.5H6.76888V4.58333C6.76888 3.89417 7.33831 3.33333 8.03805 3.33333Z" fill="white"/>
</svg>
