<svg width="19" height="21" viewBox="0 0 19 21" fill="white" xmlns="http://www.w3.org/2000/svg">
<path d="M17.5337 6.21302L11.3454 0.787911C10.7781 0.280514 10.0437 0 9.2826 0C8.5215 0 7.78711 0.280514 7.21982 0.787911L1.03149 6.21302C0.703885 6.50601 0.442461 6.86543 0.26462 7.26735C0.0867795 7.66927 -0.00339591 8.10446 9.77696e-05 8.54396V17.5583C9.77696e-05 18.3789 0.32609 19.1659 0.906358 19.7462C1.48663 20.3265 2.27364 20.6525 3.09426 20.6525H15.4709C16.2916 20.6525 17.0786 20.3265 17.6588 19.7462C18.2391 19.1659 18.5651 18.3789 18.5651 17.5583V8.53364C18.5671 8.09588 18.4762 7.66268 18.2985 7.26264C18.1207 6.86261 17.86 6.50486 17.5337 6.21302ZM11.3454 18.5897H7.21982V13.4327C7.21982 13.1592 7.32849 12.8969 7.52191 12.7034C7.71533 12.51 7.97767 12.4014 8.25121 12.4014H10.314C10.5875 12.4014 10.8499 12.51 11.0433 12.7034C11.2367 12.8969 11.3454 13.1592 11.3454 13.4327V18.5897ZM16.5023 17.5583C16.5023 17.8318 16.3937 18.0942 16.2002 18.2876C16.0068 18.481 15.7445 18.5897 15.4709 18.5897H13.4082V13.4327C13.4082 12.6121 13.0822 11.8251 12.5019 11.2448C11.9216 10.6646 11.1346 10.3386 10.314 10.3386H8.25121C7.43059 10.3386 6.64357 10.6646 6.0633 11.2448C5.48303 11.8251 5.15704 12.6121 5.15704 13.4327V18.5897H3.09426C2.82072 18.5897 2.55839 18.481 2.36496 18.2876C2.17154 18.0942 2.06288 17.8318 2.06288 17.5583V8.53364C2.06306 8.3872 2.09443 8.24248 2.15489 8.1091C2.21536 7.97573 2.30353 7.85675 2.41355 7.7601L8.60188 2.34531C8.7901 2.17996 9.03207 2.08877 9.2826 2.08877C9.53313 2.08877 9.7751 2.17996 9.96332 2.34531L16.1516 7.7601C16.2617 7.85675 16.3498 7.97573 16.4103 8.1091C16.4708 8.24248 16.5021 8.3872 16.5023 8.53364V17.5583Z" fill="black"/>
</svg>
