<svg width="20" height="21" viewBox="0 0 20 21" fill="none" xmlns="http://www.w3.org/2000/svg">
<path d="M2.38461 5.01919C3.7016 5.01919 4.76922 3.8956 4.76922 2.50959C4.76922 1.12358 3.7016 0 2.38461 0C1.06763 0 0 1.12358 0 2.50959C0 3.8956 1.06763 5.01919 2.38461 5.01919Z" fill="white"/>
<path d="M4.37179 6.69525H0.397435C0.178051 6.69525 0 6.88263 0 7.11352V19.6615C0 19.8924 0.178051 20.0798 0.397435 20.0798H4.37179C4.59117 20.0798 4.76922 19.8924 4.76922 19.6615V7.11352C4.76922 6.88263 4.59117 6.69525 4.37179 6.69525Z" fill="white"/>
<path d="M16.2144 5.99913C14.5157 5.38679 12.391 5.92468 11.1169 6.8892C11.0731 6.70935 10.9173 6.5755 10.7321 6.5755H6.75779C6.5384 6.5755 6.36035 6.76289 6.36035 6.99377V19.5417C6.36035 19.7726 6.5384 19.96 6.75779 19.96H10.7321C10.9515 19.96 11.1296 19.7726 11.1296 19.5417V10.5239C11.7718 9.9417 12.5993 9.75599 13.2765 10.0588C13.9331 10.3508 14.3091 11.0635 14.3091 12.013V19.5417C14.3091 19.7726 14.4871 19.96 14.7065 19.96H18.6808C18.9002 19.96 19.0783 19.7726 19.0783 19.5417V11.1706C19.033 7.73326 17.4965 6.4609 16.2144 5.99913Z" fill="white"/>
</svg>
