<svg width="42" height="42" viewBox="0 0 42 42" fill="none" xmlns="http://www.w3.org/2000/svg">
<path d="M20.6447 0.520233C31.7592 0.520233 40.7692 9.53027 40.7692 20.6447C40.7692 31.7591 31.7592 40.7692 20.6447 40.7692C9.53028 40.7692 0.520254 31.7591 0.520253 20.6447C0.520253 9.53027 9.53028 0.520233 20.6447 0.520233Z" fill="white" stroke="black" stroke-width="1.04052"/>
<path d="M32.3836 15.2923C32.3524 15.0356 32.1353 14.8133 31.8793 14.7759C32.0899 14.6524 32.2033 14.3836 32.1453 14.1467C32.0874 13.9095 31.8627 13.7236 31.6188 13.7111C31.7628 13.5807 31.8134 13.3573 31.7395 13.1776C31.6657 12.998 31.4728 12.8745 31.2789 12.8828C31.4073 12.7167 31.4232 12.4718 31.3181 12.2901C31.213 12.1083 30.9928 12.0005 30.7847 12.0285C30.9175 11.8163 30.895 11.5187 30.7313 11.3293C30.5044 11.0671 30.1864 11.1843 29.9103 11.0734C30.0452 10.8649 30.1867 10.6284 30.0719 10.3634C29.9693 10.1265 29.6894 9.96936 29.4192 9.99815C29.6242 9.88959 29.792 9.69362 29.7979 9.47234C29.8038 9.25071 29.603 9.02596 29.3685 9.04295C29.5236 8.87716 29.5708 8.62848 29.4861 8.42246C29.4015 8.21643 29.1885 8.06244 28.9555 8.03851C28.8466 7.45547 27.9319 7.0899 27.3805 7.37362C27.4509 7.20505 27.4054 6.99938 27.2695 6.87139C27.1335 6.74341 26.915 6.70074 26.736 6.76699C26.6975 6.48397 26.4561 6.23529 26.1599 6.17424C25.8641 6.1132 25.5342 6.24361 25.3733 6.48536C25.4781 6.29286 25.434 6.03794 25.2696 5.88706C25.1052 5.73584 24.834 5.70046 24.6321 5.80382C24.7594 5.63387 24.6269 5.38033 24.4271 5.29223C24.2274 5.20379 23.9724 5.27316 23.7539 5.30299C23.825 5.06193 23.7026 4.78238 23.4716 4.65891C23.2406 4.53543 22.9229 4.57948 22.7398 4.76053C22.703 4.5552 22.5365 4.37519 22.3256 4.31276C22.0846 4.24131 21.7037 4.35195 21.6417 4.62977C21.6281 4.43935 21.4242 4.30825 21.2334 4.30582C21.0014 4.3027 20.7652 4.47231 20.7371 4.70226C20.6077 4.52745 20.4191 4.53265 20.246 4.45288C20.033 4.35472 19.8936 4.2368 19.638 4.31241C19.4271 4.37484 19.2606 4.55485 19.2238 4.76018C19.0404 4.57913 18.723 4.53474 18.492 4.65856C18.261 4.78203 18.1382 5.06158 18.2097 5.30264C17.9912 5.27281 17.7363 5.20344 17.5365 5.29188C17.3367 5.38033 17.2042 5.63387 17.3315 5.80347C17.1296 5.70011 16.8584 5.73549 16.694 5.88671C16.5296 6.03793 16.4855 6.29252 16.5903 6.48501C16.4294 6.24292 16.0999 6.1125 15.8037 6.17389C15.5078 6.23494 15.2661 6.48363 15.2276 6.76665C15.0489 6.70006 14.8301 6.74306 14.6941 6.87105C14.5582 6.99903 14.5127 7.20505 14.5831 7.37327C14.0317 7.08955 13.117 7.45512 13.0081 8.03816C12.7751 8.06209 12.5621 8.21608 12.4775 8.42211C12.3928 8.62813 12.44 8.87681 12.595 9.0426C12.3606 9.02526 12.1594 9.25036 12.1653 9.47199C12.1712 9.69362 12.3391 9.88924 12.5441 9.9978C12.2739 9.96936 11.9936 10.1261 11.8913 10.363C11.7769 10.628 11.9184 10.8649 12.0529 11.073C11.7769 11.184 11.4588 11.0668 11.232 11.329C11.0683 11.5183 11.0454 11.8159 11.1782 12.0282C10.9701 12.0001 10.7499 12.108 10.6448 12.2897C10.5397 12.4715 10.5556 12.716 10.684 12.8825C10.4897 12.8741 10.2969 12.9976 10.2234 13.1773C10.1495 13.3569 10.2001 13.5803 10.3441 13.7107C10.1002 13.7232 9.87583 13.9091 9.81756 14.1463C9.75964 14.3836 9.87305 14.652 10.0836 14.7755C9.82796 14.813 9.61084 15.0353 9.57963 15.292C9.54841 15.5486 9.70553 15.8164 9.94485 15.9142C9.59732 16.3311 9.83629 17.0789 10.3607 17.2176C10.1797 17.1697 10.0042 17.5849 9.98821 17.7042C9.95179 17.9803 10.0978 18.1562 10.2785 18.3435C10.3364 18.4035 10.394 18.4635 10.4519 18.5235C10.1998 18.6424 9.85814 18.9716 9.95491 19.221C10.0517 19.4703 10.3618 19.6275 10.6358 19.5654C10.1942 20.2715 10.9694 20.506 11.2434 20.9607C11.4373 21.2822 11.345 22.2367 12.0873 21.7654C11.9815 21.9429 12.0269 22.1843 12.2049 22.3002C12.381 22.4146 12.628 22.3807 12.7931 22.2509C12.6082 22.4934 12.6211 22.8662 12.8229 23.0952C13.0244 23.3241 13.3928 23.3841 13.6567 23.2311C13.6515 23.4871 13.8132 23.7382 14.048 23.8402C14.2828 23.9418 14.5765 23.8877 14.7597 23.7087C14.7253 23.9602 14.8897 24.2241 15.1301 24.3046C15.3705 24.385 15.6608 24.273 15.7846 24.0517C15.8737 24.4568 16.3492 24.6289 16.7075 24.4922C16.7041 24.7399 16.8952 25.0551 17.1348 25.146C17.2802 25.2012 18.0286 24.9844 17.9912 24.9442C18.4459 25.4325 19.3106 25.5147 19.793 25.0503C20.2484 24.6122 20.5793 24.231 20.9809 23.8953C21.3826 24.2307 21.7135 24.6119 22.1689 25.0503C22.6513 25.5144 23.5163 25.4325 23.9707 24.9442C23.9332 24.9844 24.6817 25.2012 24.827 25.146C25.067 25.0551 25.2582 24.7395 25.2543 24.4922C25.6126 24.6285 26.0881 24.4568 26.1773 24.0517C26.3011 24.273 26.5914 24.385 26.8318 24.3046C27.0721 24.2241 27.2365 23.9602 27.2022 23.7087C27.3853 23.8877 27.6791 23.9418 27.9139 23.8402C28.1487 23.7385 28.3103 23.4871 28.3051 23.2311C28.5691 23.3841 28.9371 23.3241 29.1389 23.0952C29.3405 22.8662 29.3536 22.4934 29.1688 22.2509C29.3339 22.3807 29.5808 22.4146 29.757 22.3002C29.9349 22.1847 29.9804 21.9429 29.8746 21.7654C30.6168 22.2367 30.5249 21.2822 30.7184 20.9607C30.9924 20.506 31.7676 20.2715 31.3261 19.5654C31.6001 19.6271 31.9105 19.4703 32.007 19.221C32.1037 18.9716 31.7617 18.6428 31.5099 18.5235C31.5679 18.4635 31.6254 18.4035 31.6834 18.3435C31.8641 18.1558 32.0101 17.98 31.9737 17.7042C31.9577 17.5849 31.7822 17.1697 31.6012 17.2176C32.1259 17.0792 32.3645 16.3311 32.017 15.9142C32.2577 15.8171 32.4148 15.549 32.3836 15.2923Z" fill="black"/>
<path d="M33.6066 33.4032C32.8869 30.8439 30.8916 28.8409 28.335 28.1115L23.619 26.7657H20.6459H17.6728L12.9568 28.1115C10.4003 28.8409 8.40491 30.8439 7.68522 33.4032L6.3877 35.5671C10.0944 39.1098 15.1142 41.29 20.6463 41.29C26.1784 41.29 31.1982 39.1098 34.9045 35.5671L33.6066 33.4032Z" fill="black"/>
<path d="M23.4235 22.9709H20.645H17.8665L16.9907 27.5551C16.9907 27.5551 18.5584 29.1984 20.645 29.2852C22.7316 29.1988 24.299 27.5551 24.299 27.5551L23.4235 22.9709Z" fill="#EBEBEB"/>
<path d="M26.8611 16.5388C26.8611 20.2962 24.0784 25.3281 20.6454 25.3281C17.2127 25.3281 14.4297 20.2962 14.4297 16.5388C14.4297 12.7815 17.2124 9.7356 20.6454 9.7356C24.0781 9.73525 26.8611 12.7815 26.8611 16.5388Z" fill="#F5F5F5"/>
<path d="M15.2174 17.0637C15.188 17.7979 14.7509 18.7652 14.2609 18.7455C13.7708 18.7257 13.4128 17.7265 13.4427 16.9922C13.4721 16.2579 13.8935 15.6787 14.3836 15.6985C14.8734 15.7179 15.2469 16.329 15.2174 17.0637Z" fill="#F5F5F5"/>
<path d="M27.7338 16.9981C27.7588 17.7323 27.3946 18.7295 26.9045 18.7461C26.4144 18.7628 25.9837 17.7927 25.9587 17.0581C25.9337 16.3235 26.3111 15.7148 26.8012 15.6981C27.2916 15.6815 27.7088 16.2635 27.7338 16.9981Z" fill="#F5F5F5"/>
<path d="M19.4553 10.8548C19.6242 11.1989 20.3672 11.1101 20.6256 10.9787C20.7889 11.202 21.0487 11.3012 21.3217 11.2839C21.5915 11.2669 21.8444 11.1521 22.0899 11.039C22.2103 11.2835 22.5013 11.5464 22.7541 11.4448C22.7624 11.6481 22.8915 11.8416 23.076 11.9269C23.2605 12.0122 23.4915 11.9855 23.6517 11.8607C23.5893 12.2928 23.908 12.8766 24.3447 12.8714C24.2629 13.1044 24.3891 13.3732 24.5885 13.5189C24.7883 13.6646 25.0443 13.709 25.2912 13.7183C25.1529 14.1321 25.5593 14.6208 25.9915 14.5594C25.9093 14.7013 25.9326 14.9208 26.0012 15.0693C26.115 15.3152 26.4268 15.5136 26.3463 15.7723C26.3168 15.867 26.2385 15.9364 26.1792 16.0158C25.9495 16.3228 26.0515 16.8215 26.3834 17.0133C26.252 17.1982 26.1292 17.3997 26.1008 17.6248C26.0723 17.8499 26.1611 18.1038 26.363 18.2071C26.4434 18.2481 26.543 18.2619 26.6228 18.22C26.7088 18.1749 26.7528 18.076 26.7712 17.9807C26.8402 17.6165 26.6196 17.2644 26.5662 16.8978C26.4986 16.4331 26.7018 15.9766 26.9002 15.5507C27.2696 14.7575 27.5367 13.9563 27.2929 13.1159C26.9207 11.8333 26.0453 10.7043 24.8958 10.0245C24.3777 9.71789 23.8099 9.50147 23.2296 9.34088C21.3435 8.81854 19.2514 8.90248 17.513 9.80149C15.7747 10.7005 14.4539 12.4694 14.3162 14.4214C14.2895 14.8015 14.3072 15.1927 14.4438 15.5486C14.5122 15.7269 14.61 15.8951 14.6509 16.0814C14.7144 16.3703 14.6356 16.6731 14.6714 16.9668C14.7067 17.2606 14.9429 17.5794 15.2332 17.5211C15.2634 17.8853 15.3262 18.2467 15.4209 18.5994C15.7545 18.1839 15.8062 17.5631 15.5461 17.0979C15.4705 16.9627 15.372 16.8413 15.2742 16.7209C15.459 16.7362 15.6404 16.5784 15.6515 16.3932C15.6623 16.2079 15.5007 16.03 15.3151 16.0234C15.4968 16.0578 15.7018 15.8618 15.8 15.7054C15.8981 15.5486 15.8895 15.3322 15.7795 15.1837C15.9481 15.199 16.1177 15.0738 16.1531 14.9083C16.1881 14.7429 16.084 14.5594 15.9238 14.505C16.2367 14.4647 16.4285 14.0204 16.2668 13.7496C16.5197 13.8383 16.8294 13.6406 16.8554 13.3739C17.248 13.3576 17.5116 12.8273 17.3008 12.4957C17.4586 12.572 17.6608 12.5457 17.794 12.4316C17.9271 12.3171 17.9837 12.1215 17.932 11.9536C18.0846 12.0972 18.394 12.0747 18.5848 11.9869C18.7752 11.8992 18.9025 11.6897 18.8928 11.4802C19.0651 11.5565 19.2847 11.5072 19.4134 11.3578C19.5323 11.2124 19.5354 11.0175 19.4553 10.8548Z" fill="black"/>
</svg>
